<svg xmlns="http://www.w3.org/2000/svg" xmlns:xlink="http://www.w3.org/1999/xlink" id="arrow-outline" viewBox="0 0 1560 442">
	<path fill-rule="evenodd" clip-rule="evenodd" d="M1524.36 435.834L1523.93 435.951C1518.47 437.441 1512.26 437.416 1505.59 435.011C1446.71 413.791 1385.55 399.422 1321.69 391.938L1321.11 396.904C1384.59 404.344 1445.39 418.627 1503.89 439.715C1511.54 442.47 1518.8 442.535 1525.25 440.774C1525.44 440.757 1525.64 440.742 1525.83 440.727C1526.24 440.695 1526.66 440.664 1527.09 440.607C1543.74 438.291 1562.13 422.066 1558.61 406.039C1552.17 376.718 1545.72 347.398 1539.28 318.078C1532.84 288.762 1526.4 259.446 1519.95 230.129C1516.48 214.32 1503.84 201.475 1483.74 204.265C1467.09 206.582 1448.7 222.806 1452.22 238.833C1456.14 256.64 1460.05 274.443 1463.96 292.251C1464.61 295.207 1465.26 298.164 1465.91 301.121C1463.75 299.005 1461.58 296.898 1459.4 294.801C1400.74 238.345 1334.54 188.902 1251.46 162.125C1200.59 145.729 1145.29 138.48 1089.71 144.678C1037.97 150.45 988.079 167.644 938.832 184.618C932.99 186.631 927.157 188.642 921.33 190.63C869.463 208.339 815.833 225.01 761.161 221.528C707.783 218.131 658.163 199.922 613.162 176.93C575.878 157.885 541.043 135.321 506.221 112.765C448.305 75.2498 390.423 37.7573 321.367 16.5173C218.279 -15.1868 90.6249 -3.97272 9.22315 76.9731C-21.1651 107.188 30.7292 143.024 60.9854 112.936L57.4597 109.39C44.2948 122.482 26.493 121.274 15.2096 113.458C9.58678 109.563 5.99708 104.302 5.18149 98.833C4.39248 93.5419 6.06568 87.1635 12.7486 80.5187L12.7487 80.5186C92.427 1.28653 217.936 -10.0611 319.897 21.2964C374.536 38.1019 422.209 65.2355 468.824 94.6841C480.351 101.966 491.83 109.402 503.338 116.856C538.213 139.447 573.353 162.21 610.887 181.382C656.232 204.55 706.539 223.062 760.844 226.518C816.628 230.071 871.131 213.053 922.945 195.362C928.78 193.371 934.612 191.361 940.445 189.352C989.766 172.357 1039.11 155.354 1090.27 149.647C1145.06 143.537 1199.64 150.677 1249.93 166.884C1335.05 194.321 1402.41 245.891 1462.41 304.692L1474.39 316.435L1470.79 300.049C1466.23 279.281 1461.67 258.523 1457.1 237.759C1455.84 232.021 1458.4 225.597 1463.98 219.912C1469.53 214.27 1477.3 210.21 1484.43 209.218C1493.21 207.999 1500 210.201 1504.98 214.142C1510.03 218.149 1513.54 224.226 1515.07 231.203C1521.51 260.521 1527.96 289.839 1534.4 319.157C1540.84 348.475 1547.29 377.793 1553.73 407.112C1554.99 412.851 1552.43 419.275 1546.85 424.96C1541.31 430.597 1533.54 434.656 1526.42 435.652C1526.12 435.69 1525.91 435.706 1525.6 435.729C1525.4 435.745 1525.15 435.764 1524.8 435.794L1524.36 435.834ZM373.959 107.924C286.884 61.2957 146.509 27.8888 60.9854 112.936L57.4598 109.39C101.543 65.5527 159.606 52.4538 217.203 56.0614C274.754 59.6661 332.314 79.9517 376.319 103.516L376.32 103.517C410.146 121.633 442.228 142.299 474.098 162.828C485.826 170.383 497.525 177.919 509.271 185.303C553.08 212.84 597.814 238.442 648.213 255.933L646.724 260.223L648.213 255.933C695.709 272.419 746.836 280.873 799.156 276.804L799.514 281.408L799.156 276.804C851.124 272.766 902.173 255.7 952.164 238.454C954.814 237.54 957.467 236.622 960.124 235.703C1006.8 219.556 1054.42 203.08 1104.57 199.091C1155.31 195.056 1204.96 205.869 1249.35 223.436L1247.63 227.785L1249.35 223.436C1319.64 251.266 1375.61 297.171 1425.56 347.516L1437.46 359.511L1420.95 355.924C1392.12 349.66 1362.84 344.696 1333.18 341.218C1314.6 339.04 1302.88 350.897 1300.19 363.829C1298.84 370.32 1299.84 376.814 1303.16 381.847C1306.42 386.776 1312.26 390.832 1321.69 391.937L1321.11 396.904C1278.29 391.887 1290.87 331.224 1333.76 336.252C1360.51 339.39 1386.96 343.728 1413.04 349.133C1416.03 349.754 1419.02 350.389 1422.01 351.038C1419.85 348.862 1417.68 346.695 1415.5 344.539C1367.45 297.014 1313.87 254.36 1247.51 228.085C1203.63 210.718 1154.75 200.116 1104.96 204.075C1055.48 208.012 1008.41 224.291 961.594 240.486C958.993 241.385 956.394 242.284 953.795 243.181C903.875 260.402 852.243 277.694 799.544 281.789C746.433 285.92 694.614 277.332 646.574 260.657C581.877 238.204 526.577 202.582 471.236 166.934C439.422 146.44 407.593 125.938 373.959 107.924Z"/>
</svg>
