<svg xmlns="http://www.w3.org/2000/svg" xmlns:xlink="http://www.w3.org/1999/xlink" id="beer" viewBox="0 0 73 76">
	<path d="M63.3002 41.1408C63.3674 41.1384 63.4311 41.1102 63.4778 41.0619C63.5245 41.0136 63.5506 40.9492 63.5506 40.8821C63.5506 40.815 63.5245 40.7505 63.4778 40.7022C63.4311 40.6539 63.3674 40.6257 63.3002 40.6234C63.233 40.6257 63.1693 40.6539 63.1226 40.7022C63.0759 40.7505 63.0498 40.815 63.0498 40.8821C63.0498 40.9492 63.0759 41.0136 63.1226 41.0619C63.1693 41.1102 63.233 41.1384 63.3002 41.1408Z" fill="#F5F5F5"/>
	<path d="M52.8768 19.2414L50.5053 5.82355L1.66406 14.4223L10.9748 67.1014C11.4194 69.6169 12.847 71.853 14.9435 73.318C17.0401 74.783 19.6339 75.3567 22.1543 74.9129L51.9891 69.6604C53.2371 69.4407 54.4295 68.9778 55.4982 68.2981C56.567 67.6185 57.4911 66.7354 58.2179 65.6993C58.9447 64.6632 59.4599 63.4944 59.7341 62.2596C60.0083 61.0248 60.0361 59.7482 59.816 58.5026L58.7005 52.1916C63.0785 51.4208 66.9704 48.9459 69.5201 45.3112C72.0697 41.6765 73.0682 37.1798 72.2959 32.8103C71.5237 28.4408 69.0439 24.5565 65.4021 22.0119C61.7603 19.4672 57.2548 18.4706 52.8768 19.2414ZM58.0101 48.2851L53.5672 23.1479C55.221 22.8566 56.9161 22.8933 58.5557 23.2559C60.1953 23.6184 61.7473 24.2998 63.1231 25.261C64.4989 26.2222 65.6714 27.4445 66.5739 28.858C67.4763 30.2715 68.091 31.8486 68.3827 33.4992C68.6745 35.1499 68.6376 36.8417 68.2742 38.478C67.9108 40.1144 67.228 41.6633 66.2648 43.0363C65.3016 44.4094 64.0768 45.5796 62.6605 46.4801C61.2441 47.3807 59.6639 47.9941 58.0101 48.2851V48.2851Z" fill="#DBE8FC"/>
	<mask id="path-3-inside-1" fill="white">
		<path d="M51.2127 17.5775L48.8412 4.15967L0 12.7584L9.31071 65.4375C9.75531 67.953 11.1829 70.1892 13.2795 71.6541C15.3761 73.1191 17.9698 73.6928 20.4902 73.2491L50.3251 67.9965C51.573 67.7768 52.7654 67.3139 53.8342 66.6343C54.9029 65.9546 55.8271 65.0715 56.5539 64.0355C57.2806 62.9994 57.7958 61.8306 58.07 60.5957C58.3442 59.3609 58.3721 58.0843 58.1519 56.8388L57.0365 50.5277C61.4145 49.7569 65.3064 47.282 67.856 43.6473C70.4057 40.0126 71.4042 35.5159 70.6319 31.1464C69.8596 26.777 67.3798 22.8926 63.738 20.348C60.0962 17.8033 55.5907 16.8068 51.2127 17.5775ZM56.346 46.6212L51.9032 21.484C53.557 21.1927 55.2521 21.2294 56.8917 21.592C58.5313 21.9546 60.0833 22.6359 61.4591 23.5971C62.8348 24.5584 64.0074 25.7806 64.9098 27.1941C65.8123 28.6077 66.4269 30.1848 66.7187 31.8354C67.0104 33.486 66.9735 35.1778 66.6101 36.8142C66.2467 38.4505 65.5639 39.9995 64.6007 41.3725C63.6375 42.7455 62.4128 43.9157 60.9964 44.8163C59.5801 45.7169 57.9999 46.3302 56.346 46.6213V46.6212Z"/>
	</mask>
	<path d="M48.8412 4.15967L49.0753 4.11829L49.034 3.88433L48.8 3.92552L48.8412 4.15967ZM0 12.7584L-0.0412224 12.5243L-0.275524 12.5655L-0.234117 12.7998L0 12.7584ZM9.31071 65.4375L9.0766 65.4789L9.31071 65.4375ZM20.4902 73.2491L20.449 73.0149L20.4902 73.2491ZM50.3251 67.9965L50.3663 68.2306L50.3251 67.9965ZM58.1519 56.8388L58.386 56.7974L58.1519 56.8388ZM57.0365 50.5277L56.9953 50.2936L56.7609 50.3348L56.8024 50.5691L57.0365 50.5277ZM56.346 46.6212H56.5838V46.6004L56.5801 46.5799L56.346 46.6212ZM51.9032 21.484L51.8619 21.2498L51.6276 21.2911L51.669 21.5254L51.9032 21.484ZM64.6007 41.3725L64.4061 41.2359L64.6007 41.3725ZM56.346 46.6213H56.1083V46.9045L56.3872 46.8554L56.346 46.6213ZM51.4468 17.5361L49.0753 4.11829L48.6071 4.20105L50.9786 17.6189L51.4468 17.5361ZM48.8 3.92552L-0.0412224 12.5243L0.0412224 12.9925L48.8824 4.39381L48.8 3.92552ZM-0.234117 12.7998L9.0766 65.4789L9.54483 65.3961L0.234117 12.717L-0.234117 12.7998ZM9.0766 65.4789C9.53219 68.0566 10.9951 70.348 13.1433 71.849L13.4157 71.4592C11.3707 70.0304 9.97843 67.8494 9.54483 65.3961L9.0766 65.4789ZM13.1433 71.849C15.2915 73.35 17.9491 73.9378 20.5315 73.4832L20.449 73.0149C17.9906 73.4477 15.4606 72.8881 13.4157 71.4592L13.1433 71.849ZM20.5315 73.4832L50.3663 68.2306L50.2838 67.7624L20.449 73.0149L20.5315 73.4832ZM50.3663 68.2306C51.645 68.0055 52.8667 67.5312 53.9618 66.8349L53.7066 66.4336C52.6642 67.0965 51.5011 67.548 50.2838 67.7624L50.3663 68.2306ZM53.9618 66.8349C55.0568 66.1385 56.0038 65.2337 56.7485 64.172L56.3592 63.8989C55.6504 64.9094 54.749 65.7707 53.7066 66.4336L53.9618 66.8349ZM56.7485 64.172C57.4932 63.1103 58.0212 61.9126 58.3021 60.6473L57.8379 60.5442C57.5705 61.7485 57.0681 62.8884 56.3592 63.8989L56.7485 64.172ZM58.3021 60.6473C58.5831 59.3819 58.6116 58.0737 58.386 56.7974L57.9178 56.8801C58.1325 58.0949 58.1054 59.3399 57.8379 60.5442L58.3021 60.6473ZM58.386 56.7974L57.2706 50.4863L56.8024 50.5691L57.9178 56.8801L58.386 56.7974ZM57.0777 50.7619C61.5177 49.9802 65.4648 47.4702 68.0507 43.7838L67.6614 43.5107C65.148 47.0938 61.3113 49.5337 56.9953 50.2936L57.0777 50.7619ZM68.0507 43.7838C70.6366 40.0974 71.6493 35.5367 70.866 31.105L70.3978 31.1878C71.1591 35.495 70.1748 39.9277 67.6614 43.5107L68.0507 43.7838ZM70.866 31.105C70.0827 26.6734 67.5676 22.7339 63.8742 20.1531L63.6018 20.5429C67.192 23.0514 69.6365 26.8806 70.3978 31.1878L70.866 31.105ZM63.8742 20.1531C60.1807 17.5724 55.6115 16.5617 51.1715 17.3434L51.2539 17.8117C55.57 17.0518 60.0117 18.0343 63.6018 20.5429L63.8742 20.1531ZM56.5801 46.5799L52.1373 21.4426L51.669 21.5254L56.1119 46.6626L56.5801 46.5799ZM51.9444 21.7181C53.5675 21.4323 55.2312 21.4683 56.8404 21.8241L56.943 21.3598C55.273 20.9905 53.5464 20.9532 51.8619 21.2498L51.9444 21.7181ZM56.8404 21.8241C58.4495 22.18 59.9727 22.8487 61.3229 23.792L61.5952 23.4022C60.1939 22.4231 58.6131 21.7291 56.943 21.3598L56.8404 21.8241ZM61.3229 23.792C62.6731 24.7354 63.8238 25.9349 64.7094 27.3221L65.1102 27.0662C64.191 25.6263 62.9966 24.3813 61.5952 23.4022L61.3229 23.792ZM64.7094 27.3221C65.5951 28.7093 66.1983 30.2569 66.4846 31.8767L66.9528 31.794C66.6556 30.1126 66.0295 28.5061 65.1102 27.0662L64.7094 27.3221ZM66.4846 31.8767C66.7708 33.4965 66.7346 35.1568 66.378 36.7626L66.8422 36.8657C67.2124 35.1988 67.25 33.4754 66.9528 31.794L66.4846 31.8767ZM66.378 36.7626C66.0214 38.3685 65.3514 39.8885 64.4061 41.2359L64.7954 41.509C65.7765 40.1104 66.472 38.5326 66.8422 36.8657L66.378 36.7626ZM64.4061 41.2359C63.4608 42.5834 62.2589 43.7318 60.8689 44.6156L61.124 45.0169C62.5667 44.0996 63.8142 42.9076 64.7954 41.509L64.4061 41.2359ZM60.8689 44.6156C59.4789 45.4995 57.928 46.1015 56.3048 46.3871L56.3872 46.8554C58.0718 46.5589 59.6813 45.9342 61.124 45.0169L60.8689 44.6156ZM56.5838 46.6213V46.6212H56.1083V46.6213H56.5838Z" fill="black" mask="url(#path-3-inside-1)"/>
	<path d="M44.4783 8.46072L6.8689 15.082L11.0116 38.5208L48.621 31.8995L44.4783 8.46072Z" fill="white"/>
	<path opacity="0.03" d="M52.914 4.6684C51.8063 0.876567 39.3587 1.16361 25.1115 5.30952C10.8643 9.45543 0.212725 15.8902 1.32047 19.6821C1.99608 21.9947 6.89118 22.7892 13.8388 22.1172C13.5945 23.1398 13.7194 24.2157 14.1913 25.1556C14.6632 26.0955 15.4521 26.8392 16.4191 27.256C17.3861 27.6728 18.4694 27.7359 19.4785 27.4344C20.4876 27.1328 21.3579 26.4858 21.9363 25.6072C23.6043 28.9923 26.3453 31.0233 28.692 30.3404C31.2603 29.5931 32.4774 25.8514 31.6788 21.6496C32.9725 22.6593 34.4325 23.0829 35.7866 22.6889C37.4376 22.2084 38.5668 20.6187 38.9835 18.5375C40.0242 19.0928 41.1254 19.2729 42.1643 18.9706C43.4957 18.5832 44.4884 17.4749 45.0415 15.9691C46.1401 18.954 48.6718 20.8016 50.9062 20.1514C53.2808 19.4604 54.42 16.2106 53.4507 12.8928C52.936 11.1311 51.9304 9.70447 50.7448 8.85718C52.4538 7.30272 53.2609 5.85591 52.914 4.6684Z" fill="black"/>
	<path d="M52.4122 2.95197C51.3045 -0.839863 38.8568 -0.552824 24.6097 3.59309C10.3625 7.739 -0.289106 14.1738 0.81864 17.9656C1.49425 20.2783 6.38935 21.0728 13.337 20.4008C13.0927 21.4234 13.2175 22.4993 13.6895 23.4391C14.1614 24.379 14.9502 25.1228 15.9173 25.5396C16.8843 25.9564 17.9676 26.0195 18.9767 25.718C19.9858 25.4164 20.8561 24.7694 21.4344 23.8908C23.1025 27.2758 25.8435 29.3069 28.1902 28.624C30.7585 27.8766 31.9756 24.135 31.177 19.9332C32.4706 20.9429 33.9307 21.3665 35.2848 20.9724C36.9358 20.492 38.065 18.9022 38.4816 16.821C39.5224 17.3764 40.6236 17.5565 41.6625 17.2542C42.9938 16.8668 43.9866 15.7585 44.5397 14.2527C45.6383 17.2375 48.17 19.0852 50.4044 18.435C52.7789 17.744 53.9181 14.4942 52.9489 11.1764C52.4342 9.41465 51.4285 7.98804 50.243 7.14075C51.952 5.58629 52.7591 4.13948 52.4122 2.95197Z" fill="#FAFAFA"/>
	<path d="M9.00037 27.1412C9.00037 27.1412 17.2892 23.4052 26.018 27.1224C34.7468 30.8396 46.6098 20.5198 46.6098 20.5198L48.6197 31.8915L22.3633 40.2001L14.6854 39.4503L9.00037 27.1412Z" fill="#6C63FF"/>
	<path opacity="0.05" d="M9.00037 27.1412C9.00037 27.1412 17.2892 23.4052 26.018 27.1224C34.7468 30.8396 46.6098 20.5198 46.6098 20.5198L48.6197 31.8915L22.3633 40.2001L14.6854 39.4503L9.00037 27.1412Z" fill="black"/>
	<path d="M53.9645 62.1322L16.3551 68.7535L9.00037 27.1412C21.6026 33.8894 34.139 31.6823 46.6098 20.5198L53.9645 62.1322Z" fill="#6C63FF"/>
	<path d="M15.8283 36.3273C15.081 36.5447 15.4184 37.7041 16.1669 37.4863C16.9141 37.2689 16.5767 36.1095 15.8283 36.3273Z" fill="#FAFAFA"/>
	<path d="M32.784 59.7869C32.0367 60.0044 32.3741 61.1637 33.1225 60.9459C33.8698 60.7285 33.5324 59.5691 32.784 59.7869Z" fill="#FAFAFA"/>
	<path d="M24.3461 50.7646C23.5989 50.982 23.9362 52.1414 24.6846 51.9236C25.4318 51.7062 25.0945 50.5468 24.3461 50.7646Z" fill="#FAFAFA"/>
	<path d="M30.6432 40.7243C29.896 40.9418 30.2333 42.1011 30.9818 41.8833C31.729 41.6659 31.3917 40.5065 30.6432 40.7243Z" fill="#FAFAFA"/>
	<path d="M45.6994 34.571C44.9521 34.7884 45.2895 35.9478 46.038 35.73C46.7852 35.5126 46.4478 34.3532 45.6994 34.571Z" fill="#FAFAFA"/>
</svg>
