<svg xmlns="http://www.w3.org/2000/svg" xmlns:xlink="http://www.w3.org/1999/xlink" id="dash-circle" viewBox="0 0 231 231">
	<path fill-rule="evenodd" clip-rule="evenodd" d="M109.482 0.654816C111.475 0.552021 113.482 0.5 115.5 0.5C117.518 0.5 119.525 0.55202 121.518 0.654816C122.897 0.725928 123.957 1.90138 123.886 3.28026C123.815 4.65914 122.639 5.71929 121.26 5.64818C119.353 5.54981 117.432 5.5 115.5 5.5C113.568 5.5 111.647 5.54981 109.74 5.64818C108.361 5.71929 107.185 4.65914 107.114 3.28026C107.043 1.90138 108.103 0.725929 109.482 0.654816ZM142.213 6.16169C142.569 4.82781 143.939 4.03553 145.273 4.39209C149.176 5.43542 152.998 6.67892 156.726 8.11089C158.015 8.60599 158.658 10.0522 158.163 11.3411C157.668 12.63 156.222 13.2735 154.933 12.7784C151.368 11.4091 147.714 10.2201 143.982 9.22249C142.648 8.86594 141.856 7.49557 142.213 6.16169ZM88.7875 6.1617C89.144 7.49558 88.3517 8.86595 87.0179 9.2225C83.2857 10.2201 79.6318 11.4091 76.0672 12.7784C74.7783 13.2735 73.3321 12.63 72.837 11.3411C72.3419 10.0522 72.9854 8.606 74.2743 8.1109C78.0022 6.67892 81.8235 5.43543 85.7267 4.39209C87.0605 4.03554 88.4309 4.82782 88.7875 6.1617ZM174.683 19.7745C175.436 18.6172 176.985 18.2895 178.142 19.0426C181.512 21.236 184.761 23.6011 187.875 26.1256C188.947 26.9952 189.112 28.5695 188.242 29.642C187.372 30.7145 185.798 30.879 184.726 30.0095C181.747 27.5942 178.639 25.3315 175.415 23.2334C174.257 22.4804 173.93 20.9317 174.683 19.7745ZM56.3171 19.7745C57.0702 20.9317 56.7425 22.4804 55.5853 23.2334C52.361 25.3315 49.2534 27.5942 46.2744 30.0095C45.2019 30.879 43.6276 30.7145 42.758 29.642C41.8885 28.5695 42.053 26.9952 43.1255 26.1256C46.2392 23.6011 49.4875 21.236 52.8582 19.0426C54.0154 18.2895 55.5641 18.6172 56.3171 19.7745ZM201.358 42.758C202.43 41.8885 204.005 42.053 204.874 43.1255C207.399 46.2392 209.764 49.4875 211.957 52.8582C212.71 54.0154 212.383 55.5641 211.226 56.3171C210.068 57.0702 208.52 56.7425 207.767 55.5853C205.668 52.361 203.406 49.2534 200.991 46.2744C200.121 45.2019 200.285 43.6276 201.358 42.758ZM29.642 42.758C30.7145 43.6276 30.879 45.2019 30.0095 46.2744C27.5942 49.2534 25.3315 52.361 23.2334 55.5853C22.4804 56.7425 20.9317 57.0702 19.7745 56.3171C18.6172 55.5641 18.2895 54.0154 19.0426 52.8582C21.236 49.4876 23.6011 46.2392 26.1256 43.1255C26.9952 42.053 28.5695 41.8885 29.642 42.758ZM219.659 72.837C220.948 72.3419 222.394 72.9854 222.889 74.2743C224.321 78.0022 225.565 81.8235 226.608 85.7267C226.964 87.0605 226.172 88.4309 224.838 88.7875C223.504 89.144 222.134 88.3517 221.777 87.0179C220.78 83.2857 219.591 79.6318 218.222 76.0672C217.727 74.7783 218.37 73.3321 219.659 72.837ZM11.3411 72.837C12.63 73.3321 13.2735 74.7783 12.7784 76.0672C11.4091 79.6318 10.2201 83.2858 9.22249 87.0179C8.86594 88.3518 7.49557 89.144 6.16169 88.7875C4.82781 88.4309 4.03553 87.0606 4.39209 85.7267C5.43542 81.8235 6.67892 78.0022 8.11089 74.2743C8.60599 72.9854 10.0522 72.3419 11.3411 72.837ZM227.72 107.114C229.099 107.043 230.274 108.103 230.345 109.482C230.448 111.475 230.5 113.482 230.5 115.5C230.5 117.518 230.448 119.525 230.345 121.518C230.274 122.897 229.099 123.957 227.72 123.886C226.341 123.815 225.281 122.639 225.352 121.26C225.45 119.353 225.5 117.432 225.5 115.5C225.5 113.568 225.45 111.647 225.352 109.74C225.281 108.361 226.341 107.185 227.72 107.114ZM3.28026 107.114C4.65914 107.185 5.71929 108.361 5.64818 109.74C5.54981 111.647 5.5 113.568 5.5 115.5C5.5 117.432 5.54981 119.353 5.64818 121.26C5.71929 122.639 4.65914 123.815 3.28026 123.886C1.90138 123.957 0.725929 122.897 0.654816 121.518C0.552021 119.525 0.5 117.518 0.5 115.5C0.5 113.482 0.55202 111.475 0.654816 109.482C0.725928 108.103 1.90138 107.043 3.28026 107.114ZM224.838 142.213C226.172 142.569 226.964 143.939 226.608 145.273C225.565 149.176 224.321 152.998 222.889 156.726C222.394 158.015 220.948 158.658 219.659 158.163C218.37 157.668 217.727 156.222 218.222 154.933C219.591 151.368 220.78 147.714 221.778 143.982C222.134 142.648 223.504 141.856 224.838 142.213ZM6.1617 142.213C7.49558 141.856 8.86595 142.648 9.2225 143.982C10.2201 147.714 11.4091 151.368 12.7784 154.933C13.2735 156.222 12.63 157.668 11.3411 158.163C10.0522 158.658 8.606 158.015 8.1109 156.726C6.67892 152.998 5.43543 149.176 4.39209 145.273C4.03554 143.939 4.82782 142.569 6.1617 142.213ZM19.7745 174.683C20.9317 173.93 22.4804 174.257 23.2334 175.415C25.3315 178.639 27.5942 181.747 30.0095 184.726C30.879 185.798 30.7145 187.372 29.642 188.242C28.5695 189.112 26.9952 188.947 26.1256 187.875C23.6011 184.761 21.236 181.512 19.0426 178.142C18.2895 176.985 18.6172 175.436 19.7745 174.683ZM211.226 174.683C212.383 175.436 212.71 176.985 211.957 178.142C209.764 181.512 207.399 184.761 204.874 187.875C204.005 188.947 202.43 189.112 201.358 188.242C200.286 187.372 200.121 185.798 200.991 184.726C203.406 181.747 205.668 178.639 207.767 175.415C208.52 174.257 210.068 173.93 211.226 174.683ZM42.758 201.358C43.6276 200.286 45.2019 200.121 46.2744 200.991C49.2534 203.406 52.361 205.668 55.5853 207.767C56.7425 208.52 57.0702 210.068 56.3171 211.226C55.5641 212.383 54.0154 212.71 52.8582 211.957C49.4876 209.764 46.2392 207.399 43.1255 204.874C42.053 204.005 41.8885 202.43 42.758 201.358ZM188.242 201.358C189.112 202.43 188.947 204.005 187.875 204.874C184.761 207.399 181.512 209.764 178.142 211.957C176.985 212.71 175.436 212.383 174.683 211.226C173.93 210.068 174.257 208.52 175.415 207.767C178.639 205.668 181.747 203.406 184.726 200.991C185.798 200.121 187.372 200.285 188.242 201.358ZM72.837 219.659C73.3321 218.37 74.7783 217.727 76.0672 218.222C79.6318 219.591 83.2858 220.78 87.0179 221.778C88.3518 222.134 89.144 223.504 88.7875 224.838C88.4309 226.172 87.0606 226.964 85.7267 226.608C81.8235 225.565 78.0022 224.321 74.2743 222.889C72.9854 222.394 72.3419 220.948 72.837 219.659ZM158.163 219.659C158.658 220.948 158.015 222.394 156.726 222.889C152.998 224.321 149.176 225.565 145.273 226.608C143.939 226.964 142.569 226.172 142.213 224.838C141.856 223.504 142.648 222.134 143.982 221.777C147.714 220.78 151.368 219.591 154.933 218.222C156.222 217.727 157.668 218.37 158.163 219.659ZM107.114 227.72C107.185 226.341 108.361 225.281 109.74 225.352C111.647 225.45 113.568 225.5 115.5 225.5C117.432 225.5 119.353 225.45 121.26 225.352C122.639 225.281 123.815 226.341 123.886 227.72C123.957 229.099 122.897 230.274 121.518 230.345C119.525 230.448 117.518 230.5 115.5 230.5C113.482 230.5 111.475 230.448 109.482 230.345C108.103 230.274 107.043 229.099 107.114 227.72Z"/>
</svg>
