<svg xmlns="http://www.w3.org/2000/svg" xmlns:xlink="http://www.w3.org/1999/xlink" id="logo" viewBox="0 0 135 63" fill="currentColor">
	<path d="M24.3506 37.4518C24.9817 31.3098 7.91323 31.8424 8.32886 27.4565C9.11393 19.5583 24.3967 6.3003 26.7304 9.00609C28.1559 10.6649 18.8643 23.1163 16.5891 23.162C13.5535 23.2229 17.8206 27.5783 20.4129 27.5265C23.8918 27.4565 30.7481 16.5573 30.6219 10.4305C30.5357 6.24248 27.6263 3.23537 23.39 3.3206C15.1082 3.48799 2.42694 17.3213 1.5926 25.7826C0.705931 34.8708 17.9899 35.583 17.8914 36.8979C17.7405 38.7788 11.1982 43.4782 4.17873 43.6212C2.97803 43.6456 1.882 42.6686 1.92203 41.6033C2.01747 40.0389 3.0119 39.2049 2.56856 39.2141C-0.402411 39.2749 -2.05569 51.0051 4.8345 50.8651C13.4303 50.6855 23.9903 41.4633 24.3506 37.4518ZM32.5923 47.2888C35.0584 47.2888 36.9549 44.5374 39.0422 39.5976C39.0422 42.4129 40.6863 47.2888 45.1751 47.2888C53.1428 47.2888 63.1364 24.8999 63.8321 19.1474C64.0846 17.1447 59.5312 15.5834 59.4696 16.396C59.4049 16.9591 57.7609 24.0872 53.463 32.7798C50.6182 38.6571 48.0229 42.5347 47.1393 42.5347C46.2526 42.5347 46.1264 41.2198 46.3819 39.2202C47.3948 30.9019 52.8965 19.4579 52.8965 19.2083C53.0227 18.3318 47.0161 16.8312 46.0679 17.7078C45.055 18.5844 43.3494 22.5228 42.1456 26.1508C39.8058 32.092 35.4432 42.5347 33.7345 42.5347C33.0387 42.5347 32.7863 41.2198 33.0387 39.2202C33.987 30.9019 39.4887 19.4579 39.4887 19.2083C39.6149 18.3318 33.6699 16.8312 32.66 17.7078C30.5727 19.6466 26.2101 30.7771 26.2101 38.721C26.2039 43.4751 28.4176 47.2888 32.5923 47.2888ZM15.7486 49.9733C14.9327 50.3629 14.0399 50.7129 13.1748 50.862C13.1748 50.862 43.9097 53.3578 69.965 55.7075C70.0173 54.3287 70.1497 52.7217 70.3467 50.9899C51.6496 50.1072 29.5197 49.188 21.7583 48.7924C19.6863 48.6858 17.6143 49.0785 15.7486 49.9733ZM129.046 17.2787C127.777 17.2787 126.577 19.3909 125.437 22.5867C124.314 25.7491 122.95 28.8231 121.386 31.7968C118.874 36.5692 115.77 42.4829 114.311 42.4829C114.058 42.4829 113.554 42.419 113.554 40.8576C113.554 34.2286 118.486 22.0328 120.004 20.5323C120.321 20.2827 120.508 20.4075 120.508 20.0331C120.508 19.1566 118.042 17.2817 114.563 17.2817C113.744 17.2817 112.692 18.6909 111.626 20.8427C110.866 22.3798 110.099 24.3003 109.407 26.3548C109.216 26.9178 109.034 27.49 108.855 28.0683C107.787 31.5594 106.266 34.9013 104.361 38.024C102.812 40.5624 101.346 42.486 100.358 42.486C100.167 42.486 99.1575 42.3612 99.1575 40.4833C99.1575 35.9178 101.285 28.8049 104.197 21.2202C104.277 21.0101 104.357 20.8032 104.441 20.5932C104.819 20.5932 106.593 20.7819 107.097 20.7819C108.295 20.7819 109.213 19.8353 109.748 18.8644C110.315 17.8356 110.459 16.7795 110.072 16.7795C109.647 16.7795 110.444 17.0656 107.895 17.09C107.784 17.09 107.667 17.09 107.541 17.09C105.961 17.026 105.961 16.9499 105.961 16.886C106.691 14.6733 107.325 13.1819 107.889 12.1532C108.323 11.3619 108.717 10.8444 109.086 10.4792C109.936 9.64221 110.481 9.57829 110.481 9.20088C110.481 8.57694 107.193 5.95029 103.779 5.95029C102.372 5.95029 101.584 7.14643 100.269 10.5127C99.727 11.9036 98.0122 16.6273 97.8644 17.0291C97.8644 17.0291 96.9623 19.6527 96.9777 19.6557C96.1003 22.2185 95.306 24.7051 94.6317 27.0365C94.3577 27.9861 94.2192 28.4701 93.8036 29.788C93.782 29.8641 93.7605 29.9401 93.7389 30.0162C92.9169 33.5408 92.5013 34.8282 92.2149 39.1471C91.9286 43.4934 93.2709 47.6601 98.6556 47.1762C101.5 46.9205 104.413 44.4035 106.799 39.4636C106.928 44.7413 109.536 47.1762 112.929 47.1762C115.9 47.1762 119.52 44.1782 121.986 39.1136C121.694 43.2012 119.594 52.3564 114.921 52.7095C112.83 52.8678 100.817 52.3869 85.568 51.7051C85.414 53.4735 85.0477 55.2996 84.515 56.9797C100.888 58.4407 113.6 59.5911 114.902 59.6094C121.038 59.6855 123.877 56.3071 125.521 49.8028L126.857 44.9239C130.21 31.4772 132.534 22.4711 134.495 20.5323C134.748 20.2827 135 20.4714 135 20.0331C134.991 19.1535 132.46 17.2787 129.046 17.2787ZM81.9874 44.4795C87.7692 44.4795 94.1853 25.9469 92.532 25.9469C91.0081 25.9469 85.9251 41.0889 80.525 41.8407C82.049 33.3581 91.2605 7.28644 95.9617 3.76801C96.1526 3.51539 96.596 3.64322 96.596 3.26581C96.596 2.26141 92.5936 0 89.8628 0C86.7994 0 80.9622 15.0477 76.8121 30.1958C74.1797 35.1478 70.4329 42.6595 68.7704 42.6595C68.5149 42.6595 68.0069 42.6595 68.0069 41.025C68.0069 34.3656 73.0252 22.115 74.5492 20.6053C74.8047 20.3527 75.0572 20.5414 75.0572 20.1031C75.0572 19.2235 72.5172 17.3395 69.0844 17.3395C66.3536 17.3395 61.206 32.229 61.206 39.2019C61.206 44.793 63.8752 47.3679 67.3696 47.3679C69.6294 47.3679 72.0339 44.6561 74.1151 41.165C72.8559 47.0605 72.0677 53.4065 72.0677 57.0315C72.0677 61.5543 74.9894 63 76.769 63C82.6216 63.003 85.4818 47.5597 81.9874 44.4795ZM77.9851 58.7298C76.3964 58.7298 79.4474 45.5479 79.9554 45.5479C81.8612 45.5479 80.1432 58.7298 77.9851 58.7298ZM73.3454 15.7142C74.9556 16.6334 77.3447 15.5286 78.6778 13.2428C80.0109 10.9571 79.7861 8.36084 78.1759 7.44166C76.5658 6.52249 74.1767 7.62733 72.8436 9.91309C71.5105 12.1989 71.7352 14.7951 73.3454 15.7142Z" />
</svg>
