<svg xmlns="http://www.w3.org/2000/svg" xmlns:xlink="http://www.w3.org/1999/xlink" id="plus" viewBox="0 0 30 30" fill="none">
	<circle cx="15" cy="15" r="13.5" stroke="currentColor" stroke-width="3" fill="transparent" />
	<path fill-rule="evenodd" clip-rule="evenodd" d="M16.435 9.26477C16.435 8.43634 15.7634 7.76477 14.935 7.76477C14.1066 7.76477 13.435 8.43634 13.435 9.26477V13.4878H9.26477C8.43634 13.4878 7.76477 14.1594 7.76477 14.9878C7.76477 15.8162 8.43634 16.4878 9.26477 16.4878H13.435V20.7107C13.435 21.5391 14.1066 22.2107 14.935 22.2107C15.7634 22.2107 16.435 21.5391 16.435 20.7107V16.4878H20.6052C21.4336 16.4878 22.1052 15.8162 22.1052 14.9878C22.1052 14.1594 21.4336 13.4878 20.6052 13.4878H16.435V9.26477Z" fill="currentColor"/>
</svg>
