<svg xmlns="http://www.w3.org/2000/svg" xmlns:xlink="http://www.w3.org/1999/xlink" id="arrow" viewBox="0 0 1560 442" fill: url(#my-cool-gradient) #447799;>
	<path d="M1525.59 440.662C1519.14 442.422 1511.89 442.358 1504.24 439.602C1445.73 418.514 1384.94 404.232 1321.46 396.791C1278.64 391.775 1291.22 331.111 1334.11 336.139C1363.94 339.638 1393.38 344.629 1422.36 350.925C1372.63 300.807 1317.23 255.44 1247.86 227.973C1203.98 210.606 1155.1 200.004 1105.31 203.963C1053.07 208.119 1003.54 226.025 954.142 243.069C904.222 260.289 852.591 277.582 799.891 281.677C746.78 285.807 694.961 277.219 646.921 260.544C545.031 225.184 466.447 157.16 374.306 107.812C287.231 61.1834 146.856 27.7766 61.3326 112.823C31.0764 142.912 -20.818 107.076 9.57032 76.8608C90.9721 -4.08499 218.626 -15.299 321.714 16.405C432.29 50.4154 514.214 126.096 613.509 176.817C658.51 199.809 708.13 218.018 761.509 221.415C816.181 224.898 869.81 208.227 921.678 190.517C976.616 171.772 1032.18 151.023 1090.06 144.565C1145.64 138.368 1200.94 145.617 1251.81 162.012C1337.97 189.784 1405.98 241.937 1466.26 301.009C1461.7 280.242 1457.13 259.484 1452.57 238.721C1449.05 222.694 1467.44 206.469 1484.09 204.153C1504.19 201.363 1516.83 214.208 1520.3 230.017C1533.19 288.655 1546.07 347.289 1558.96 405.927C1562.48 421.954 1544.09 438.178 1527.44 440.495C1526.8 440.578 1526.21 440.608 1525.59 440.662Z"/>
</svg>
