<svg xmlns="http://www.w3.org/2000/svg" xmlns:xlink="http://www.w3.org/1999/xlink" id="powered-by heineken" viewBox="0 0 194 26" fill="currentColor">
	<path d="M4.04252 10.0402H0.748614C0.316081 10.0402 0 10.3563 0 10.7722V21.9182H1.64695V17.5929H3.90943C6.53789 17.5929 7.96858 16.2288 7.96858 13.7999C7.96858 11.7371 6.67098 10.0402 4.04252 10.0402ZM3.90943 16.1456H1.64695V11.4875H3.87616C5.43993 11.4875 6.27172 12.3526 6.27172 13.7667C6.27172 15.397 5.42329 16.1456 3.90943 16.1456Z" fill="var(--logo, #26233B)"/>
	<path d="M12.9908 22.1345C15.4695 22.1345 17.0167 20.3877 17.0167 17.7593C17.0167 15.1142 15.4695 13.384 12.9908 13.384C10.5786 13.384 8.99818 15.1308 8.98155 17.7593C8.96491 20.3877 10.5453 22.1345 12.9908 22.1345ZM12.9908 20.787C11.3771 20.787 10.5287 19.7223 10.5287 17.7593C10.5287 15.7962 11.3937 14.7315 12.9908 14.7315C14.6211 14.7315 15.4695 15.7962 15.4695 17.7593C15.4695 19.7223 14.6211 20.787 12.9908 20.787Z" fill="var(--logo, #26233B)"/>
	<path d="M28.2205 13.6003L26.6235 20.2713L24.7769 13.6003H23.0967L21.2335 20.2879L19.6364 13.6003H17.9728L20.1355 21.336C20.3185 21.8517 20.6346 22.018 21.2002 22.018C21.7492 22.018 22.0653 21.8683 22.2649 21.336L23.9118 15.2972L25.5422 21.336C25.7418 21.8683 26.0412 22.018 26.6069 22.018C27.1392 22.018 27.4553 21.8517 27.6549 21.336L29.8509 13.6003H28.2205Z" fill="var(--logo, #26233B)"/>
	<path d="M34.8261 20.7704C33.3289 20.7704 32.5138 19.8221 32.3308 18.4081H36.0738C37.5544 18.4081 38.3529 17.5264 38.3529 16.2454C38.3529 14.3156 36.6894 13.384 35.059 13.384C32.2309 13.384 30.7836 15.4968 30.7836 17.8924C30.7836 20.604 32.5637 22.1012 34.743 22.1012C35.8908 22.1012 37.2217 21.6687 38.2032 20.8036L37.4213 19.7389C36.6894 20.3877 35.6912 20.7704 34.8261 20.7704ZM34.9925 14.5984C36.1903 14.5984 36.9056 15.3304 36.9056 16.1456C36.9056 16.9108 36.4731 17.2602 35.8409 17.2602H32.2975C32.4805 15.5966 33.5452 14.5984 34.9925 14.5984Z" fill="var(--logo, #26233B)"/>
	<path d="M44.3441 13.384C43.3792 13.384 42.381 13.8498 41.7156 14.665V13.6003H40.2017V21.9182H41.7489V15.9626C42.5474 15.1641 43.4457 14.7814 44.2276 14.7814C44.5437 14.7814 44.7932 14.8314 45.1426 14.9145L45.4088 13.6003C45.076 13.4506 44.7267 13.384 44.3441 13.384Z" fill="var(--logo, #26233B)"/>
	<path d="M49.9186 20.7704C48.4214 20.7704 47.6063 19.8221 47.4233 18.4081H51.1663C52.6469 18.4081 53.4454 17.5264 53.4454 16.2454C53.4454 14.3156 51.7819 13.384 50.1515 13.384C47.3234 13.384 45.8761 15.4968 45.8761 17.8924C45.8761 20.604 47.6562 22.1012 49.8355 22.1012C50.9833 22.1012 52.3142 21.6687 53.2957 20.8036L52.5138 19.7389C51.7819 20.3877 50.7837 20.7704 49.9186 20.7704ZM50.085 14.5984C51.2828 14.5984 51.9981 15.3304 51.9981 16.1456C51.9981 16.9108 51.5656 17.2602 50.9334 17.2602H47.39C47.573 15.5966 48.6377 14.5984 50.085 14.5984Z" fill="var(--logo, #26233B)"/>
	<path d="M60.87 10.0402V14.1493C60.2378 13.6502 59.4559 13.384 58.5909 13.384C56.3284 13.384 54.6981 15.1308 54.6981 17.909C54.6981 20.4543 56.1454 22.1345 58.2082 22.1345C59.3062 22.1345 60.1879 21.702 60.8866 21.0365V21.9182H62.4171V10.0402H60.87ZM58.4911 20.787C57.1269 20.787 56.2618 19.7389 56.2618 17.8591C56.2618 15.763 57.2267 14.7315 58.674 14.7315C59.4892 14.7315 60.2877 15.0809 60.87 15.6631V19.6391C60.2045 20.3877 59.3395 20.787 58.4911 20.787Z" fill="var(--logo, #26233B)"/>
	<path d="M72.6782 13.4007C71.5802 13.4007 70.7152 13.8166 70.0165 14.4321V10.0402H68.4361V21.1363C69.351 21.7851 70.4989 22.1345 71.7299 22.1345C74.5747 22.1345 76.1551 20.2546 76.1551 17.5929C76.1551 15.0476 74.8076 13.4007 72.6782 13.4007ZM71.7133 20.787C71.0978 20.787 70.5155 20.6539 70.0165 20.4044V15.7796C70.6653 15.0975 71.497 14.7315 72.3455 14.7315C73.8427 14.7315 74.5747 15.763 74.5747 17.4931C74.5747 19.5892 73.4767 20.787 71.7133 20.787Z" fill="var(--logo, #26233B)"/>
	<path d="M83.3002 13.6003L81.0044 19.9386L78.4758 13.6003H76.8787L80.2558 21.6687L79.9231 22.5171C79.5405 23.482 79.108 23.9145 78.4092 23.9145C77.9601 23.9145 77.6274 23.7315 77.3113 23.482L76.6791 24.5301C77.095 24.9626 77.7605 25.2454 78.4592 25.2454C79.5738 25.2454 80.6218 24.5134 81.2374 22.9663L84.9804 13.6003H83.3002Z" fill="var(--logo, #26233B)"/>
	<path fill-rule="evenodd" clip-rule="evenodd" d="M193.579 11.3052V11.7878C193.579 11.7878 193.028 11.9946 193.028 12.6839V23.5755C193.028 23.9891 192.683 24.2648 192.338 24.2648H190.201L185.514 16.82C185.514 16.82 185.583 17.4404 185.583 18.1986V24.2648H182.963V11.3052H184.687C185.583 11.3052 186.203 11.6499 186.617 12.3392L190.546 18.5433C190.546 18.5433 190.408 18.1297 190.408 17.1646V11.3052H193.579ZM143.395 11.3052V23.5755C143.395 23.9891 143.051 24.2648 142.706 24.2648H140.5L135.812 16.82C135.812 16.82 135.881 17.4404 135.881 18.1986V24.2648H133.262V11.3052H134.985C135.881 11.3052 136.502 11.6499 136.915 12.3392L140.845 18.5433C140.845 18.5433 140.707 18.1297 140.707 17.1646V11.3052C140.776 11.3052 143.395 11.3052 143.395 11.3052ZM110.996 11.3052H107.481V16.2685H104.447V11.3052H100.38V11.7878C100.38 11.7878 100.932 11.9946 100.932 12.6839V24.2648H104.447V18.6812H107.481V24.2648H110.996V11.3052ZM122.37 11.3052H114.581V23.093C114.581 23.7823 115.201 24.2648 115.891 24.2648H122.37C122.784 24.2648 123.06 23.9202 123.06 23.5755V21.9211H118.579C118.303 21.9211 118.028 21.7143 118.028 21.3696V18.6122H122.026V16.2685H118.028V13.649H122.991V11.9946C123.06 11.6499 122.715 11.3052 122.37 11.3052ZM129.746 11.3052H126.231V23.5755C126.231 23.9891 126.575 24.2648 126.92 24.2648H129.746V11.3052ZM179.31 11.3052H171.52V23.093C171.52 23.7134 172.141 24.2648 172.83 24.2648H179.31C179.724 24.2648 179.999 23.9202 179.999 23.5755V21.9211H175.519C175.243 21.9211 174.967 21.7143 174.967 21.3696V18.6122H178.965V16.2685H174.967V13.649H179.93V11.9946C179.999 11.6499 179.655 11.3052 179.31 11.3052ZM154.7 11.3052H146.911V23.093C146.911 23.7134 147.531 24.2648 148.221 24.2648H154.7C155.114 24.2648 155.39 23.9202 155.39 23.5755V21.9211H150.909C150.633 21.9211 150.358 21.7143 150.358 21.3696V18.6122H154.356V16.2685H150.358V13.649H155.321V11.9946C155.39 11.6499 155.045 11.3052 154.7 11.3052ZM169.452 11.3052H166.902C166.281 11.3052 165.799 11.4431 165.316 11.9946L161.732 16.0617V11.2363H158.216V23.5066C158.216 23.9202 158.561 24.1959 158.905 24.1959H161.732V18.3365L164.834 23.1619C165.316 23.8512 165.73 24.2648 166.833 24.2648H169.728L164.834 16.6132L169.452 11.3052Z" fill="#118348"/>
	<path fill-rule="evenodd" clip-rule="evenodd" d="M93.6248 16.1306C93.5559 16.1995 93.418 16.1995 93.3491 16.0616C93.2801 15.9927 93.2801 15.9238 93.3491 15.8548C93.418 15.5791 95.2103 9.99544 95.2103 9.99544L90.247 6.41087C90.1092 6.273 90.1781 5.99727 90.3849 5.99727C90.6606 5.99727 96.4511 5.99727 96.4511 5.99727C96.4511 5.99727 98.2434 0.413605 98.3123 0.137868C98.3812 0.0689341 98.4502 0 98.588 0C98.657 0 98.7259 0.0689341 98.7259 0.137868C98.7948 0.413605 100.587 5.99727 100.587 5.99727C100.587 5.99727 106.309 5.99727 106.653 5.99727C106.86 5.99727 106.929 6.273 106.791 6.41087L103.896 8.54783H100.449L99.4153 5.23899L98.3812 8.54783H94.9345L97.7608 10.6159L96.7268 13.9247L93.6248 16.1306Z" fill="#D8232A"/>
</svg>
